<svg xmlns="http://www.w3.org/2000/svg" width="375" viewBox="0 0 375 375" height="375" version="1.0"><defs><clipPath id="a"><path d="M 40 165.851562 L 150 165.851562 L 150 201.851562 L 40 201.851562 Z M 40 165.851562"/></clipPath><clipPath id="b"><path d="M 151 165.851562 L 346 165.851562 L 346 201.851562 L 151 201.851562 Z M 151 165.851562"/></clipPath></defs><path fill="#FFF" d="M-37.5 -37.5H412.5V412.5H-37.5z"/><path fill="#FFF" d="M-37.5 -37.5H412.5V412.5H-37.5z"/><path fill="#FFF" d="M-37.5 -37.5H412.5V412.5H-37.5z"/><g clip-path="url(#a)"><path fill="#404041" d="M 131.757812 178.0625 L 138.046875 168.875 C 139.238281 167.148438 140.761719 166.285156 142.65625 166.285156 C 144.191406 166.285156 145.515625 166.832031 146.644531 167.9375 C 147.773438 169.046875 148.328125 170.351562 148.328125 171.886719 C 148.328125 173.015625 148.03125 174.015625 147.4375 174.878906 L 141.761719 183.195312 L 148.695312 192.050781 C 149.410156 192.957031 149.757812 193.988281 149.738281 195.148438 C 149.738281 196.710938 149.195312 198.058594 148.09375 199.179688 C 146.992188 200.304688 145.679688 200.863281 144.128906 200.863281 C 142.425781 200.863281 141.125 200.3125 140.234375 199.195312 L 131.730469 188.511719 L 131.730469 194.398438 C 131.730469 196.085938 131.445312 197.386719 130.871094 198.316406 C 129.816406 200.015625 128.277344 200.863281 126.261719 200.863281 C 124.425781 200.863281 123.011719 200.238281 122.003906 198.992188 C 121.0625 197.839844 120.589844 196.328125 120.589844 194.421875 L 120.589844 172.570312 C 120.589844 170.769531 121.066406 169.292969 122.019531 168.125 C 123.019531 166.902344 124.410156 166.277344 126.183594 166.277344 C 127.871094 166.277344 129.269531 166.894531 130.472656 168.125 C 131.101562 168.8125 131.492188 169.496094 131.65625 170.199219 C 131.757812 170.632812 131.800781 171.4375 131.800781 172.621094 Z M 103.136719 165.605469 C 107.253906 165.59375 111.035156 166.976562 114.484375 169.78125 C 117.203125 171.980469 118.558594 174.246094 118.558594 176.601562 C 118.589844 177.542969 118.382812 178.429688 117.941406 179.257812 C 117.496094 180.089844 116.875 180.75 116.078125 181.246094 C 115.152344 181.882812 114.128906 182.199219 113.007812 182.195312 C 112.085938 182.195312 111.21875 181.980469 110.40625 181.546875 C 110.046875 181.367188 109.191406 180.523438 107.832031 179.027344 C 107.226562 178.34375 106.507812 177.816406 105.671875 177.449219 C 104.835938 177.085938 103.964844 176.910156 103.050781 176.933594 C 102.175781 176.910156 101.335938 177.070312 100.527344 177.40625 C 99.71875 177.742188 99.011719 178.230469 98.40625 178.867188 C 97.15625 180.164062 96.535156 181.734375 96.535156 183.597656 C 96.515625 184.480469 96.671875 185.328125 96.996094 186.144531 C 97.320312 186.964844 97.792969 187.683594 98.40625 188.308594 C 99.652344 189.605469 101.265625 190.253906 103.03125 190.253906 C 104.625 190.242188 106.039062 189.726562 107.269531 188.703125 L 109.667969 186.355469 C 110.527344 185.609375 111.621094 185.234375 112.941406 185.234375 C 114.464844 185.234375 115.78125 185.773438 116.894531 186.847656 C 117.4375 187.347656 117.855469 187.9375 118.148438 188.621094 C 118.4375 189.300781 118.578125 190.015625 118.566406 190.757812 C 118.566406 192.84375 117.351562 194.933594 114.992188 197.070312 C 111.59375 200.066406 107.65625 201.5625 103.203125 201.5625 C 100.445312 201.5625 97.84375 200.972656 95.398438 199.792969 C 92.300781 198.316406 89.84375 196.113281 88.023438 193.191406 C 86.195312 190.289062 85.289062 187.113281 85.289062 183.664062 C 85.289062 178.5 87.1875 174.109375 90.988281 170.488281 C 94.347656 167.292969 98.421875 165.679688 103.230469 165.644531 Z M 83.070312 173.238281 L 83.070312 194.386719 C 83.140625 196.0625 82.667969 197.570312 81.65625 198.90625 C 80.65625 200.203125 79.257812 200.851562 77.46875 200.851562 C 76.679688 200.863281 75.925781 200.710938 75.203125 200.394531 C 74.480469 200.074219 73.859375 199.621094 73.332031 199.027344 C 72.390625 198.019531 71.917969 196.464844 71.917969 194.386719 L 71.917969 173.238281 C 71.917969 170.878906 72.390625 169.164062 73.332031 168.089844 C 73.851562 167.492188 74.472656 167.03125 75.199219 166.710938 C 75.921875 166.394531 76.679688 166.246094 77.46875 166.269531 C 79.15625 166.269531 80.542969 166.867188 81.613281 168.070312 C 82.585938 169.164062 83.078125 170.890625 83.078125 173.238281 Z M 51.808594 178.0625 L 58.097656 168.875 C 59.28125 167.148438 60.8125 166.285156 62.707031 166.285156 C 64.242188 166.285156 65.5625 166.832031 66.695312 167.9375 C 67.824219 169.046875 68.378906 170.351562 68.378906 171.886719 C 68.378906 173.015625 68.078125 174.015625 67.488281 174.878906 L 61.8125 183.195312 L 68.746094 192.050781 C 69.460938 192.957031 69.808594 193.988281 69.789062 195.148438 C 69.789062 196.710938 69.246094 198.058594 68.144531 199.179688 C 67.042969 200.304688 65.730469 200.863281 64.179688 200.863281 C 62.476562 200.863281 61.175781 200.3125 60.289062 199.195312 L 51.785156 188.511719 L 51.785156 194.398438 C 51.785156 196.085938 51.5 197.386719 50.929688 198.316406 C 49.871094 200.015625 48.335938 200.863281 46.320312 200.863281 C 44.484375 200.863281 43.070312 200.238281 42.0625 198.992188 C 41.117188 197.839844 40.644531 196.328125 40.644531 194.421875 L 40.644531 172.570312 C 40.644531 170.769531 41.125 169.292969 42.074219 168.125 C 43.074219 166.902344 44.46875 166.277344 46.242188 166.277344 C 47.929688 166.277344 49.328125 166.894531 50.527344 168.125 C 51.15625 168.8125 51.550781 169.496094 51.714844 170.199219 C 51.816406 170.632812 51.859375 171.4375 51.859375 172.621094 L 51.859375 178.0625"/></g><g clip-path="url(#b)"><path fill="#85C442" d="M 342.210938 187.472656 L 344.839844 191.722656 C 345.550781 192.828125 345.917969 194.042969 345.933594 195.363281 C 345.933594 196.949219 345.390625 198.257812 344.308594 199.296875 C 343.230469 200.332031 341.902344 200.859375 340.328125 200.859375 C 338.316406 200.859375 336.785156 199.992188 335.742188 198.265625 L 331.082031 190.578125 L 331.082031 195.199219 C 331.101562 195.945312 330.972656 196.667969 330.707031 197.363281 C 330.4375 198.058594 330.046875 198.675781 329.53125 199.214844 C 329.027344 199.761719 328.4375 200.175781 327.757812 200.464844 C 327.078125 200.75 326.367188 200.886719 325.628906 200.863281 C 323.714844 200.863281 322.257812 200.171875 321.34375 198.792969 C 320.449219 197.566406 320.007812 195.984375 320.007812 193.996094 L 320.007812 173 C 320.007812 168.679688 322.316406 166.535156 326.921875 166.535156 L 334.011719 166.535156 C 336.34375 166.535156 338.515625 167.210938 340.515625 168.574219 C 342.515625 169.933594 343.972656 171.691406 344.902344 173.859375 C 345.589844 175.425781 345.9375 177.0625 345.945312 178.777344 C 345.945312 181.855469 344.730469 184.75 342.375 187.414062 Z M 306.335938 190.066406 L 311.410156 190.066406 C 313.503906 190.066406 315.054688 190.496094 316.082031 191.359375 C 317.285156 192.390625 317.890625 193.722656 317.890625 195.355469 C 317.917969 196.136719 317.769531 196.878906 317.453125 197.589844 C 317.136719 198.300781 316.679688 198.90625 316.082031 199.402344 C 315.140625 200.195312 313.597656 200.597656 311.453125 200.597656 L 302.753906 200.597656 C 300.703125 200.597656 299.304688 200.441406 298.46875 200.125 C 296.980469 199.503906 295.996094 198.503906 295.515625 197.097656 C 295.214844 196.199219 295.074219 194.722656 295.074219 192.679688 L 295.074219 174.152344 L 295.214844 171.027344 C 295.375 169.976562 295.8125 169.0625 296.53125 168.285156 C 297.316406 167.433594 298.332031 166.894531 299.554688 166.65625 C 300.125 166.558594 301.304688 166.515625 303.070312 166.515625 L 309.738281 166.515625 L 312.910156 166.5625 C 314.105469 166.679688 315.074219 167.03125 315.839844 167.617188 C 316.492188 168.078125 316.996094 168.667969 317.355469 169.382812 C 317.714844 170.101562 317.886719 170.859375 317.871094 171.660156 C 317.871094 173.460938 317.277344 174.828125 316.082031 175.78125 C 315.027344 176.628906 313.582031 177.054688 311.753906 177.054688 L 306.265625 177.054688 L 306.265625 179.371094 L 310.636719 179.371094 C 311.925781 179.371094 312.996094 179.710938 313.824219 180.394531 C 314.710938 181.128906 315.160156 182.136719 315.160156 183.417969 C 315.160156 186.132812 313.519531 187.488281 310.246094 187.488281 L 306.265625 187.488281 L 306.265625 190.058594 Z M 273.277344 176.984375 L 270.320312 176.984375 C 268.800781 177.042969 267.445312 176.59375 266.253906 175.636719 C 265.109375 174.671875 264.539062 173.382812 264.539062 171.761719 C 264.539062 170.796875 264.808594 169.867188 265.347656 168.976562 C 265.835938 168.117188 266.53125 167.484375 267.425781 167.074219 C 268.285156 166.699219 270.296875 166.515625 273.484375 166.515625 L 284.742188 166.515625 C 287.5 166.515625 289.285156 166.679688 290.101562 167.019531 C 290.992188 167.378906 291.714844 168.011719 292.273438 168.902344 C 292.828125 169.796875 293.101562 170.734375 293.101562 171.785156 C 293.101562 173.332031 292.488281 174.679688 291.265625 175.832031 C 290.386719 176.644531 288.964844 177.054688 286.976562 177.054688 L 284.425781 177.054688 L 284.425781 194.03125 C 284.425781 195.882812 284.113281 197.308594 283.484375 198.324219 C 283.253906 198.726562 282.972656 199.089844 282.644531 199.414062 C 282.3125 199.738281 281.949219 200.015625 281.542969 200.238281 C 281.140625 200.464844 280.714844 200.628906 280.265625 200.738281 C 279.816406 200.84375 279.363281 200.890625 278.902344 200.871094 C 276.902344 200.871094 275.363281 200.09375 274.292969 198.546875 C 273.613281 197.582031 273.277344 196.121094 273.277344 194.226562 Z M 260.023438 187.472656 L 262.652344 191.722656 C 263.367188 192.828125 263.730469 194.042969 263.746094 195.363281 C 263.746094 196.949219 263.203125 198.257812 262.125 199.296875 C 261.042969 200.332031 259.714844 200.859375 258.148438 200.859375 C 256.136719 200.859375 254.605469 199.992188 253.5625 198.265625 L 248.902344 190.578125 L 248.902344 195.199219 C 248.921875 195.945312 248.792969 196.667969 248.527344 197.363281 C 248.257812 198.058594 247.867188 198.675781 247.351562 199.214844 C 246.851562 199.761719 246.257812 200.175781 245.578125 200.464844 C 244.898438 200.75 244.1875 200.886719 243.449219 200.863281 C 241.535156 200.863281 240.078125 200.171875 239.164062 198.792969 C 238.269531 197.566406 237.828125 195.984375 237.828125 193.996094 L 237.828125 173 C 237.828125 168.679688 240.136719 166.535156 244.746094 166.535156 L 251.832031 166.535156 C 254.164062 166.535156 256.335938 167.210938 258.335938 168.574219 C 260.335938 169.933594 261.792969 171.691406 262.722656 173.859375 C 263.417969 175.492188 263.765625 177.125 263.765625 178.777344 C 263.765625 181.855469 262.550781 184.75 260.195312 187.414062 Z M 213.695312 196.113281 C 213.304688 197.144531 212.757812 198.085938 212.058594 198.933594 C 211.542969 199.53125 210.929688 199.988281 210.214844 200.3125 C 209.5 200.636719 208.753906 200.792969 207.972656 200.785156 C 206.003906 200.785156 204.46875 199.992188 203.382812 198.386719 C 202.667969 197.4375 202.417969 196.371094 202.417969 195.191406 C 202.429688 194.148438 202.660156 193.15625 203.113281 192.21875 L 213.6875 169.523438 C 214.710938 167.3125 216.425781 166.210938 218.820312 166.210938 C 221.210938 166.210938 222.992188 167.347656 224.050781 169.632812 L 234.734375 192.5 C 235.152344 193.355469 235.363281 194.265625 235.375 195.21875 C 235.375 196.550781 234.945312 197.738281 234.089844 198.761719 C 233.566406 199.417969 232.925781 199.925781 232.167969 200.28125 C 231.414062 200.636719 230.617188 200.804688 229.78125 200.785156 C 229.117188 200.808594 228.472656 200.699219 227.851562 200.46875 C 227.230469 200.234375 226.675781 199.890625 226.1875 199.4375 C 225.472656 198.777344 224.757812 197.667969 224.054688 196.128906 L 213.695312 196.128906 Z M 186.582031 176.910156 L 183.632812 176.910156 C 182.109375 176.96875 180.753906 176.519531 179.566406 175.5625 C 178.421875 174.597656 177.851562 173.3125 177.851562 171.691406 C 177.851562 170.726562 178.121094 169.796875 178.65625 168.902344 C 179.195312 168.011719 179.886719 167.378906 180.730469 167.003906 C 181.574219 166.628906 183.601562 166.441406 186.789062 166.441406 L 198.039062 166.441406 C 200.796875 166.441406 202.582031 166.605469 203.398438 166.945312 C 204.289062 167.304688 205.011719 167.9375 205.5625 168.832031 C 206.113281 169.726562 206.390625 170.660156 206.390625 171.710938 C 206.390625 173.261719 205.777344 174.605469 204.554688 175.757812 C 203.683594 176.570312 202.246094 176.984375 200.265625 176.984375 L 197.714844 176.984375 L 197.714844 193.960938 C 197.714844 195.8125 197.402344 197.234375 196.773438 198.25 C 196.542969 198.652344 196.261719 199.019531 195.933594 199.34375 C 195.601562 199.667969 195.234375 199.945312 194.832031 200.167969 C 194.425781 200.394531 194 200.558594 193.550781 200.667969 C 193.101562 200.773438 192.644531 200.816406 192.183594 200.800781 C 190.183594 200.800781 188.648438 200.023438 187.574219 198.472656 C 186.898438 197.511719 186.5625 196.046875 186.5625 194.15625 L 186.5625 177.046875 Z M 156.746094 187.636719 C 157.984375 187.636719 159.304688 188.1875 160.714844 189.292969 C 162.464844 190.675781 163.664062 191.367188 164.308594 191.367188 C 165.265625 191.367188 165.738281 190.863281 165.738281 189.871094 C 165.738281 189.324219 165.453125 188.863281 164.894531 188.472656 C 164.59375 188.273438 162.929688 187.632812 159.890625 186.550781 C 154.917969 184.789062 152.433594 181.527344 152.433594 176.757812 C 152.433594 173.160156 153.746094 170.328125 156.363281 168.25 C 158.648438 166.433594 161.507812 165.527344 164.886719 165.527344 C 167.816406 165.527344 170.355469 166.234375 172.519531 167.636719 C 174.683594 169.039062 175.761719 170.855469 175.761719 173.066406 C 175.761719 174.398438 175.355469 175.515625 174.535156 176.398438 C 174.125 176.84375 173.640625 177.183594 173.085938 177.414062 C 172.527344 177.648438 171.949219 177.753906 171.347656 177.730469 C 169.976562 177.730469 168.453125 177.082031 166.789062 175.757812 C 165.746094 174.945312 164.964844 174.535156 164.429688 174.535156 C 163.523438 174.535156 163.070312 174.980469 163.070312 175.882812 C 163.070312 176.730469 164.195312 177.5 166.445312 178.207031 C 169.554688 179.1875 171.949219 180.386719 173.664062 181.804688 C 175.929688 183.707031 177.058594 186.371094 177.058594 189.726562 C 177.058594 193.457031 175.785156 196.363281 173.242188 198.46875 C 170.882812 200.410156 167.808594 201.390625 163.949219 201.390625 C 160.09375 201.390625 157.035156 200.382812 154.5625 198.34375 C 152.582031 196.730469 151.589844 194.847656 151.589844 192.679688 C 151.589844 191.238281 152.074219 190.015625 153.054688 189.058594 C 154.03125 188.097656 155.234375 187.601562 156.667969 187.582031"/></g></svg>